<?xml version="1.0" encoding="UTF-8"?>
<svg xmlns="http://www.w3.org/2000/svg" xmlns:xlink="http://www.w3.org/1999/xlink" width="48pt" height="48pt" viewBox="0 0 48 48" version="1.1">
<g id="surface2017974">
<path style=" stroke:none;fill-rule:nonzero;fill:rgb(60.784314%,34.901961%,71.372549%);fill-opacity:1;" d="M 24 4 C 13 4 4 13 4 24 C 4 35 13 44 24 44 C 35 44 44 35 44 24 C 44 13 35 4 24 4 Z M 24 4 "/>
<path style=" stroke:none;fill-rule:nonzero;fill:rgb(100%,100%,100%);fill-opacity:1;" d="M 16 34 C 12.699219 34 10 31.300781 10 28 L 10 22 L 14 22 L 14 28 C 14 29.101562 14.898438 30 16 30 C 17.101562 30 18 29.101562 18 28 L 18 21.898438 L 22 21.898438 L 22 28 C 22 31.300781 19.300781 34 16 34 Z M 16 34 "/>
<path style=" stroke:none;fill-rule:nonzero;fill:rgb(100%,100%,100%);fill-opacity:1;" d="M 20 25.101562 C 18.898438 25.101562 18 24.199219 18 23.101562 L 18 18 C 18 14.699219 20.699219 12 24 12 C 27.300781 12 30 14.699219 30 18 L 30 21 C 30 22.101562 29.101562 23 28 23 C 26.898438 23 26 22.101562 26 21 L 26 18 C 26 16.898438 25.101562 16 24 16 C 22.898438 16 22 16.898438 22 18 L 22 23.101562 C 22 24.199219 21.101562 25.101562 20 25.101562 Z M 34 22 L 34 28 C 34 29.101562 33.101562 30 32 30 C 30.898438 30 30 29.101562 30 28 L 30 24.398438 C 29.398438 24.699219 28.699219 25 28 25 C 27.300781 25 26.601562 24.800781 26 24.398438 L 26 28 C 26 31.300781 28.699219 34 32 34 C 35.300781 34 38 31.300781 38 28 L 38 22 Z M 34 22 "/>
</g>
</svg>
